<?xml version="1.0" encoding="UTF-8" standalone="no"?>
<!-- Created with Inkscape (http://www.inkscape.org/) -->

<svg
   xmlns:dc="http://purl.org/dc/elements/1.1/"
   xmlns:cc="http://creativecommons.org/ns#"
   xmlns:rdf="http://www.w3.org/1999/02/22-rdf-syntax-ns#"
   xmlns:svg="http://www.w3.org/2000/svg"
   xmlns="http://www.w3.org/2000/svg"
   xmlns:xlink="http://www.w3.org/1999/xlink"
   xmlns:sodipodi="http://sodipodi.sourceforge.net/DTD/sodipodi-0.dtd"
   xmlns:inkscape="http://www.inkscape.org/namespaces/inkscape"
   width="44.122021"
   height="44.122028"
   id="svg3329"
   version="1.1"
   inkscape:version="0.48.3.1 r9886"
   sodipodi:docname="New document 9">
  <defs
     id="defs3331">
    <linearGradient
       inkscape:collect="always"
       xlink:href="#linearGradient3257"
       id="linearGradient2716"
       gradientUnits="userSpaceOnUse"
       x1="127.19796"
       y1="18.49473"
       x2="127.19796"
       y2="47.546875" />
    <linearGradient
       id="linearGradient3257"
       inkscape:collect="always">
      <stop
         id="stop3259"
         offset="0"
         style="stop-color:#ffffff;stop-opacity:1" />
      <stop
         id="stop3261"
         offset="1"
         style="stop-color:#ffffff;stop-opacity:0" />
    </linearGradient>
  </defs>
  <sodipodi:namedview
     id="base"
     pagecolor="#ffffff"
     bordercolor="#666666"
     borderopacity="1.0"
     inkscape:pageopacity="0.0"
     inkscape:pageshadow="2"
     inkscape:zoom="0.35"
     inkscape:cx="-48.653276"
     inkscape:cy="90.632439"
     inkscape:document-units="px"
     inkscape:current-layer="layer1"
     showgrid="false"
     fit-margin-top="0"
     fit-margin-left="0"
     fit-margin-right="0"
     fit-margin-bottom="0"
     inkscape:window-width="513"
     inkscape:window-height="386"
     inkscape:window-x="0"
     inkscape:window-y="25"
     inkscape:window-maximized="0" />
  <metadata
     id="metadata3334">
    <rdf:RDF>
      <cc:Work
         rdf:about="">
        <dc:format>image/svg+xml</dc:format>
        <dc:type
           rdf:resource="http://purl.org/dc/dcmitype/StillImage" />
        <dc:title></dc:title>
      </cc:Work>
    </rdf:RDF>
  </metadata>
  <g
     inkscape:label="Layer 1"
     inkscape:groupmode="layer"
     id="layer1"
     transform="translate(-423.65328,-578.87259)">
    <g
       transform="translate(308.8994,550.014)"
       id="g3215">
      <path
         sodipodi:type="arc"
         style="fill:#73d216;fill-opacity:1;fill-rule:evenodd;stroke:none"
         id="path3680"
         sodipodi:cx="655.00006"
         sodipodi:cy="908.54846"
         sodipodi:rx="35.10146"
         sodipodi:ry="35.10146"
         d="m 690.10152,908.54846 c 0,19.386 -15.71546,35.10146 -35.10146,35.10146 -19.386,0 -35.10146,-15.71546 -35.10146,-35.10146 0,-19.386 15.71546,-35.10146 35.10146,-35.10146 19.386,0 35.10146,15.71546 35.10146,35.10146 z"
         transform="matrix(0.6284927,0,0,0.6284928,-274.84787,-520.09656)" />
      <path
         transform="matrix(0.7015559,0,0,0.7362531,47.578367,17.304685)"
         d="m 149.62659,34.778526 c 0,8.993293 -10.04164,16.283797 -22.42863,16.283797 -12.38699,0 -22.42863,-7.290504 -22.42863,-16.283797 0,-8.993292 10.04164,-16.283796 22.42863,-16.283796 12.38699,0 22.42863,7.290504 22.42863,16.283796 z"
         sodipodi:ry="16.283796"
         sodipodi:rx="22.428625"
         sodipodi:cy="34.778526"
         sodipodi:cx="127.19796"
         id="path3682"
         style="opacity:0.75;fill:url(#linearGradient2716);fill-opacity:1;fill-rule:evenodd;stroke:none"
         sodipodi:type="arc" />
      <g
         id="g3974"
         transform="matrix(0.5824089,0,0,0.6244504,-221.85727,-439.02821)"
         style="fill:#4e9a06;stroke:none">
        <path
           sodipodi:type="inkscape:offset"
           inkscape:radius="-0.66131908"
           inkscape:original="M 649.75 891.0625 C 641.40779 893.35756 635.28126 900.99292 635.28125 910.0625 C 635.28127 920.94545 644.11705 929.78124 655 929.78125 C 665.88295 929.78122 674.71874 920.94545 674.71875 910.0625 C 674.71873 900.98968 668.56549 893.35456 660.21875 891.0625 L 660.21875 899.15625 C 664.28467 901.11041 667.125 905.25095 667.125 910.0625 C 667.12501 916.75034 661.68785 922.1875 655 922.1875 C 648.31215 922.18751 642.875 916.75035 642.875 910.0625 C 642.87498 905.25102 645.6842 901.11044 649.75 899.15625 L 649.75 891.0625 z "
           xlink:href="#path22091"
           style="fill:#4e9a06;fill-opacity:1;fill-rule:evenodd;stroke:none"
           id="path3976"
           inkscape:href="#path22091"
           d="m 649.09375,892 c -7.61853,2.48999 -13.15624,9.60548 -13.15625,18.0625 2e-5,10.525 8.5375,19.06249 19.0625,19.0625 10.525,-3e-5 19.06249,-8.5375 19.0625,-19.0625 -2e-5,-8.45792 -5.56444,-15.57409 -13.1875,-18.0625 l 0,6.8125 c 4.06728,2.13572 6.90625,6.34059 6.90625,11.25 10e-6,7.04627 -5.73497,12.78125 -12.78125,12.78125 -7.04628,10e-6 -12.78125,-5.73497 -12.78125,-12.78125 -2e-5,-4.90659 2.80869,-9.1136 6.875,-11.25 l 0,-6.8125 z"
           transform="matrix(0.935483,0,0,0.935483,3.100892,-64.47165)" />
        <path
           sodipodi:type="inkscape:offset"
           inkscape:radius="-0.60243881"
           inkscape:original="M 651.1875 887.3125 L 651.1875 911.125 L 658.8125 911.125 L 658.8125 887.3125 L 651.1875 887.3125 z "
           xlink:href="#path22093"
           style="fill:#4e9a06;fill-opacity:1;fill-rule:evenodd;stroke:none"
           id="path3978"
           inkscape:href="#path22093"
           d="m 651.78125,887.90625 0,22.625 6.4375,0 0,-22.625 -6.4375,0 z"
           transform="matrix(0.935483,0,0,0.935483,3.100892,-64.47165)" />
      </g>
      <g
         style="fill:#eeeeec;stroke:none"
         transform="matrix(0.5824089,0,0,0.5824089,-221.85727,-406.81819)"
         id="g3684">
        <path
           transform="matrix(0.935483,0,0,0.935483,3.100892,-64.47165)"
           d="m 649.09375,892 c -7.61853,2.48999 -13.15624,9.60548 -13.15625,18.0625 2e-5,10.525 8.5375,19.06249 19.0625,19.0625 10.525,-3e-5 19.06249,-8.5375 19.0625,-19.0625 -2e-5,-8.45792 -5.56444,-15.57409 -13.1875,-18.0625 l 0,6.8125 c 4.06728,2.13572 6.90625,6.34059 6.90625,11.25 10e-6,7.04627 -5.73497,12.78125 -12.78125,12.78125 -7.04628,10e-6 -12.78125,-5.73497 -12.78125,-12.78125 -2e-5,-4.90659 2.80869,-9.1136 6.875,-11.25 l 0,-6.8125 z"
           inkscape:href="#path22091"
           id="path3686"
           style="fill:#eeeeec;fill-opacity:1;fill-rule:evenodd;stroke:none"
           xlink:href="#path22091"
           inkscape:original="M 649.75 891.0625 C 641.40779 893.35756 635.28126 900.99292 635.28125 910.0625 C 635.28127 920.94545 644.11705 929.78124 655 929.78125 C 665.88295 929.78122 674.71874 920.94545 674.71875 910.0625 C 674.71873 900.98968 668.56549 893.35456 660.21875 891.0625 L 660.21875 899.15625 C 664.28467 901.11041 667.125 905.25095 667.125 910.0625 C 667.12501 916.75034 661.68785 922.1875 655 922.1875 C 648.31215 922.18751 642.875 916.75035 642.875 910.0625 C 642.87498 905.25102 645.6842 901.11044 649.75 899.15625 L 649.75 891.0625 z "
           inkscape:radius="-0.66131908"
           sodipodi:type="inkscape:offset" />
        <path
           transform="matrix(0.935483,0,0,0.935483,3.100892,-64.47165)"
           d="m 651.78125,887.90625 0,22.625 6.4375,0 0,-22.625 -6.4375,0 z"
           inkscape:href="#path22093"
           id="path3688"
           style="fill:#eeeeec;fill-opacity:1;fill-rule:evenodd;stroke:none"
           xlink:href="#path22093"
           inkscape:original="M 651.1875 887.3125 L 651.1875 911.125 L 658.8125 911.125 L 658.8125 887.3125 L 651.1875 887.3125 z "
           inkscape:radius="-0.60243881"
           sodipodi:type="inkscape:offset" />
      </g>
    </g>
  </g>
</svg>
